<svg width="38" height="38" viewBox="0 0 38 38" fill="#FFFFFF" xmlns="http://www.w3.org/2000/svg">
<path fill-rule="evenodd" clip-rule="evenodd" d="M5.21896 29.2862H3.81946V29.8402H5.10481V30.308H3.81946V30.9887H5.28106V31.4569H3.27969V28.8196H5.21896V29.2862ZM6.98869 30.7398L7.25325 30.9889C7.16123 31.0361 7.05915 31.0602 6.95576 31.0593C6.65808 31.0593 6.23916 30.876 6.23916 30.1379C6.23916 29.3998 6.65808 29.2164 6.95576 29.2164C7.25325 29.2164 7.67178 29.3998 7.67178 30.1379C7.67178 30.3851 7.62407 30.5676 7.55073 30.7043L7.27158 30.4436L6.98869 30.7398ZM8.23402 31.3489L7.94679 31.0786C8.10844 30.8726 8.22278 30.5716 8.22278 30.1381C8.22278 28.9006 7.30451 28.7504 6.95557 28.7504C6.60683 28.7504 5.68894 28.9006 5.68894 30.1381C5.68894 31.3763 6.60683 31.5261 6.95557 31.5261C7.10934 31.5261 7.38139 31.4974 7.63117 31.3491L7.94383 31.6476L8.23402 31.3489ZM10.8158 30.5349C10.8158 31.2281 10.3965 31.5259 9.7317 31.5259C9.48961 31.5259 9.12963 31.4674 8.89464 31.2068C8.75152 31.0463 8.69632 30.8314 8.68922 30.5676V28.8196H9.25107V30.5304C9.25107 30.8988 9.46398 31.0595 9.72066 31.0595C10.0994 31.0595 10.2531 30.8762 10.2531 30.5566V28.8196H10.816L10.8158 30.5349ZM12.2914 29.4148H12.2995L12.6257 30.4578H11.9527L12.2914 29.4148ZM11.8056 30.9119H12.7793L12.9484 31.4571H13.5472L12.6186 28.8196H11.9828L11.0427 31.4571H11.6229L11.8056 30.9119ZM14.5277 30.9797H15.8387V31.4569H13.9761V28.8196H14.5277V30.9797ZM17.9276 30.2733V31.4569H17.3776V28.8196H17.9276V29.8183H18.9563V28.8196H19.5065V31.4569H18.9563V30.2733H17.9276ZM20.5565 30.1379C20.5565 29.3998 20.9758 29.2164 21.2723 29.2164C21.5704 29.2164 21.9893 29.3998 21.9893 30.1379C21.9893 30.876 21.5704 31.0593 21.2723 31.0593C20.9758 31.0593 20.5565 30.876 20.5565 30.1379ZM20.0063 30.1379C20.0063 31.3761 20.9249 31.5259 21.2723 31.5259C21.6226 31.5259 22.5403 31.3761 22.5403 30.1379C22.5403 28.9004 21.6228 28.7502 21.2723 28.7502C20.9251 28.7502 20.0063 28.9004 20.0063 30.1379ZM25.1702 30.5349C25.1702 31.2281 24.7508 31.5259 24.0859 31.5259C23.8434 31.5259 23.4844 31.4674 23.2484 31.2068C23.1055 31.0463 23.0501 30.8314 23.0436 30.5676V28.8196H23.6047V30.5304C23.6047 30.8988 23.8184 31.0595 24.076 31.0595C24.4541 31.0595 24.6081 30.8762 24.6081 30.5566V28.8196H25.1704L25.1702 30.5349ZM26.1781 30.6445C26.1831 30.7912 26.257 31.0708 26.7376 31.0708C26.9978 31.0708 27.2886 31.0085 27.2886 30.7285C27.2886 30.5237 27.0903 30.4679 26.8116 30.4021L26.5285 30.3358C26.1011 30.2368 25.6902 30.1426 25.6902 29.5622C25.6902 29.2681 25.8493 28.7502 26.7045 28.7502C27.5132 28.7502 27.7294 29.2785 27.7334 29.6019H27.2039C27.1897 29.4852 27.1453 29.2052 26.6641 29.2052C26.4553 29.2052 26.2055 29.2823 26.2055 29.521C26.2055 29.7278 26.3745 29.7702 26.4835 29.796L27.127 29.954C27.487 30.0425 27.817 30.1895 27.817 30.6629C27.817 31.4571 27.0095 31.5261 26.7778 31.5261C25.8164 31.5261 25.6512 30.9714 25.6512 30.6447L26.1781 30.6445ZM28.8192 31.4569H28.27V28.8196H28.8192V31.4569ZM31.0201 28.8196H31.5337V31.4569H30.9834L29.908 29.5756H29.8988V31.4569H29.3852V28.8196H29.9654L31.0108 30.6562H31.0201V28.8196ZM33.3773 30.0354H34.4781V31.4569H34.1117L34.0567 31.1265C33.9173 31.2866 33.7152 31.5258 33.2338 31.5258C32.5988 31.5258 32.0228 31.0706 32.0228 30.1454C32.0228 29.4262 32.4232 28.7461 33.3107 28.75C34.1199 28.75 34.4397 29.2744 34.4673 29.6395H33.9171C33.9171 29.5364 33.7292 29.2052 33.3406 29.2052C32.9468 29.2052 32.5836 29.4767 32.5836 30.1521C32.5836 30.8724 32.9767 31.0593 33.3511 31.0593C33.4723 31.0593 33.8775 31.0124 33.9902 30.4791H33.3773V30.0354ZM3.71339 34.1442C3.71339 33.4061 4.13192 33.2219 4.42901 33.2219C4.7265 33.2219 5.14483 33.4061 5.14483 34.1442C5.14483 34.8819 4.7265 35.0668 4.42901 35.0668C4.13192 35.0668 3.71339 34.8819 3.71339 34.1442ZM3.16258 34.1442C3.16258 35.3812 4.08047 35.5338 4.42921 35.5338C4.77815 35.5338 5.69604 35.3814 5.69604 34.1442C5.69604 32.9069 4.77795 32.7565 4.42921 32.7565C4.08047 32.7565 3.16258 32.9071 3.16258 34.1442ZM7.20534 34.0557V33.2801H7.6424C7.98365 33.2801 8.12717 33.3875 8.12717 33.6448C8.12717 33.7623 8.12717 34.0557 7.71554 34.0557H7.20534ZM7.20534 34.5118H7.83659C8.5457 34.5118 8.67739 33.9088 8.67739 33.6704C8.67739 33.153 8.36965 32.8257 7.85867 32.8257H6.65473V35.4632H7.20534V34.5118ZM10.1723 34.0557V33.2801H10.6086C10.9502 33.2801 11.0935 33.3875 11.0935 33.6448C11.0935 33.7623 11.0935 34.0557 10.6829 34.0557H10.1723ZM10.1723 34.5118H10.8039C11.5125 34.5118 11.6451 33.9088 11.6451 33.6704C11.6451 33.153 11.337 32.8257 10.8264 32.8257H9.6213V35.4632H10.1723V34.5118ZM13.0226 34.1442C13.0226 33.4061 13.4401 33.2219 13.7388 33.2219C14.0349 33.2219 14.4544 33.4061 14.4544 34.1442C14.4544 34.8819 14.0351 35.0668 13.7388 35.0668C13.4401 35.0668 13.0226 34.8819 13.0226 34.1442ZM12.4716 34.1442C12.4716 35.3812 13.3892 35.5338 13.7388 35.5338C14.0867 35.5338 15.0046 35.3814 15.0046 34.1442C15.0046 32.9069 14.0867 32.7565 13.7388 32.7565C13.3892 32.7565 12.4716 32.9071 12.4716 34.1442ZM16.5041 33.9863V33.2801H17.1899C17.5132 33.2801 17.5751 33.4869 17.5751 33.6263C17.5751 33.8873 17.4361 33.9863 17.1495 33.9863H16.5041ZM15.9627 35.4634H16.5041V34.4312H17.0722C17.4803 34.4312 17.5028 34.5702 17.5028 34.9302C17.5028 35.2012 17.5235 35.3371 17.5603 35.4634H18.1705V35.3923C18.053 35.3487 18.053 35.2529 18.053 34.8687C18.053 34.375 17.9355 34.295 17.719 34.1992C17.9797 34.1118 18.1259 33.8615 18.1259 33.5719C18.1259 33.3436 17.9982 32.8261 17.2966 32.8261H15.9625L15.9627 35.4634ZM20.1784 35.4634H19.6278V33.2925H18.8313V32.8259H20.9758V33.2925H20.1784V35.4634ZM23.9319 34.5404C23.9319 35.2344 23.5134 35.5338 22.848 35.5338C22.6069 35.5338 22.247 35.4725 22.0114 35.2123C21.8681 35.0514 21.8131 34.8381 21.8066 34.5739V32.8259H22.3676V34.5367C22.3676 34.904 22.5809 35.0668 22.8378 35.0668C23.2159 35.0668 23.3699 34.8819 23.3699 34.5627V32.8257H23.9321V34.5404H23.9319ZM26.5975 32.8259H27.1126V35.4634H26.5606L25.4844 33.5821H25.4785V35.4634H24.9634V32.8259H25.5435L26.5909 34.6617H26.5975V32.8259ZM28.6666 35.4634H28.1141V32.8259H28.6666V35.4634ZM30.8171 35.4634H30.2664V33.2925H29.471V32.8259H31.6145V33.2925H30.8171V35.4634ZM33.6969 35.4634H33.1451V34.4677L32.2353 32.8259H32.8849L33.4319 33.9721L33.9547 32.8259H34.5781L33.6969 34.4742V35.4634ZM18.8676 1.34888L1.11292 10.0934V14.2011H3.10009V26.5227H34.5014V14.2011H36.8876V10.0934L18.8676 1.34888ZM30.6595 22.8117H6.94255V11.5509L18.8676 5.45649L30.6597 11.5509V22.8117H30.6595Z" fill="#FFFFFF"/>
<path fill-rule="evenodd" clip-rule="evenodd" d="M24.2986 15.5249H13.3027V11.5509H24.2986V15.5249ZM24.2986 21.2246H13.3027V17.2481H24.2986V21.2246Z" fill="#FFFFFF"/>
</svg>
