<svg width="50" height="24" viewBox="0 0 50 24" fill="#FFFFFF" xmlns="http://www.w3.org/2000/svg">
<path fill-rule="evenodd" clip-rule="evenodd" d="M0.605591 23.3131V6.7666H5.45209V0.0102539H20.884V6.7666H49.3958V23.3131H0.605591ZM49.0146 22.868V7.2117H20.8882V18.0338H5.45601V7.2117H1.05571V22.8682L49.0146 22.868ZM23.4238 18.1592L25.35 12.0906H27.966L28.2706 14.5786L29.8925 12.0906H32.6099L30.8256 18.1592H28.8584L29.5276 15.5294L27.6619 18.1592H26.4858L26.3843 15.5903L25.3905 18.1592H23.4238ZM38.6513 15.9706H40.679C41.1252 16.4355 41.2876 16.5367 41.6324 16.5367C41.997 16.5367 42.2406 16.3751 42.2406 16.0718C42.2406 15.8697 42.0379 15.6673 41.7135 15.5658L40.5981 15.2422C39.9289 15.0401 39.4624 14.4938 39.4624 13.7454C39.4624 12.5318 40.7402 11.7228 42.4234 11.7228C44.4108 11.7228 45.4449 12.5318 45.4449 13.7256V14.0086H43.356C43.1533 13.6041 42.9301 13.3008 42.4641 13.3008C42.1803 13.3008 41.8961 13.5029 41.8961 13.7454C41.8961 13.9277 42.0178 14.0893 42.4844 14.2311L43.5789 14.575C44.3094 14.8174 44.7556 15.3031 44.7556 16.0312C44.7556 17.3259 43.417 18.2562 41.6327 18.2562C39.6042 18.2562 38.7525 17.3462 38.6513 15.9706ZM32.4059 18.1592L34.2106 12.0906H36.5833L35.5085 15.9342H37.3742L36.7661 18.1592H32.4059ZM46.295 17.5351C47.593 17.5351 48.5256 18.4862 48.5256 19.8006C48.5256 21.0954 47.6133 22.0865 46.3355 22.0865C44.977 22.0865 44.0037 21.176 44.0037 19.8412C44.0012 19.5394 44.0586 19.2401 44.1726 18.9605C44.2866 18.6809 44.455 18.4266 44.668 18.2122C44.881 17.9979 45.1344 17.8277 45.4137 17.7114C45.6929 17.5952 45.9925 17.5353 46.295 17.5351ZM48.2403 19.7965C48.2403 18.6233 47.429 17.8145 46.2731 17.8145C45.1781 17.8145 44.306 18.6641 44.306 19.8371C44.306 21.0306 45.1168 21.7993 46.3336 21.7993C47.4493 21.7996 48.2403 20.9297 48.2403 19.7965ZM46.1357 19.0928H46.5616L46.9063 20.0028L47.2308 19.0928H47.6566V20.529H47.3322V19.6997L47.0281 20.529H46.7642L46.4601 19.6997V20.529H46.1357V19.0928ZM44.8378 19.0928H45.9531V19.3561H45.5471V20.5293H45.2227V19.3561H44.8375L44.8378 19.0928ZM25.6922 10.7564L25.8547 9.78553H26.1384L26.2198 10.4328L26.5442 9.78553H26.8279L26.666 10.7564H26.4832L26.605 10.0485L26.2398 10.7564H26.0779L25.9968 10.0485L25.875 10.7564H25.6922ZM36.8268 10.7564L36.9888 9.76524H37.1711L37.4752 10.453L37.5771 9.76524H37.7798L37.5969 10.7564H37.435L37.1106 10.1091L37.0091 10.7564H36.8268ZM38.3467 10.432L38.3671 10.2499H38.7929L38.6915 10.7556H38.5092L38.5295 10.7153C38.4281 10.7759 38.3874 10.7759 38.286 10.7759C38.0424 10.7759 37.8804 10.5938 37.8804 10.3105C37.8804 9.98687 38.0831 9.76446 38.3668 9.76446C38.6104 9.76446 38.752 9.90597 38.7927 10.1084H38.6104C38.5697 10.0072 38.5089 9.96684 38.3668 9.96684C38.1845 9.96684 38.0627 10.068 38.0627 10.3105C38.0627 10.4926 38.1642 10.5938 38.3261 10.5938C38.4886 10.5938 38.5293 10.5532 38.5697 10.432H38.3467ZM44.3107 10.4112H44.4935C44.4325 10.6336 44.2909 10.7954 44.0676 10.7954C43.8037 10.7954 43.6509 10.6133 43.6509 10.33C43.6509 9.96606 43.8647 9.74364 44.1281 9.74364C44.3308 9.74364 44.4729 9.90545 44.5139 10.0875H44.331C44.2705 9.98635 44.2296 9.94603 44.1081 9.94603C43.9665 9.94603 43.8447 10.0472 43.8447 10.3303C43.8447 10.4923 43.9258 10.5933 44.0676 10.5933C44.2095 10.5933 44.2705 10.5326 44.3107 10.4112ZM40.3347 10.7564L40.517 9.76524H41.1904L41.1598 9.94733H40.6633L40.6297 10.1495H41.0931L41.0636 10.3313H40.5981L40.5579 10.5743H41.0545L41.024 10.7564H40.3347ZM31.5133 10.7564L31.6956 9.78553H32.3653L32.3347 9.96736H31.8377L31.7975 10.1495H32.2656L32.2362 10.3316H31.7772L31.7365 10.5743H32.2336L32.203 10.7564H31.5133ZM26.9513 10.3708L27.0527 9.78422H27.235L27.1336 10.4112C27.1224 10.5488 27.1946 10.6136 27.296 10.6136C27.3771 10.6136 27.458 10.5326 27.4783 10.4517L27.6001 9.78422H27.7824L27.681 10.4315C27.6403 10.6945 27.519 10.7956 27.2958 10.7956C27.0324 10.7954 26.9244 10.6638 26.9513 10.3708ZM34.6552 10.4523H34.8375C34.8579 10.5735 34.8986 10.5938 35.0605 10.5938C35.1416 10.5938 35.2026 10.5735 35.2026 10.5129C35.2026 10.4723 35.1823 10.4317 35.1215 10.3914L34.878 10.2699C34.7765 10.2093 34.7358 10.1284 34.7358 10.0272C34.7358 9.88568 34.8373 9.7439 35.0603 9.7439C35.3038 9.7439 35.405 9.86539 35.4658 10.0675H35.2631C35.2428 9.96632 35.182 9.926 35.0605 9.926C34.9591 9.926 34.9184 9.96658 34.9184 10.0272C34.9184 10.0675 34.9387 10.1081 35.0204 10.1484L35.2431 10.2496C35.3244 10.2902 35.3852 10.3911 35.3852 10.4923C35.3852 10.6541 35.2634 10.7754 35.0404 10.7754C34.7974 10.7759 34.6758 10.6341 34.6552 10.4523ZM39.4611 10.4523H39.6434C39.6637 10.5334 39.7044 10.6141 39.8465 10.6141C39.948 10.6141 40.0288 10.5737 40.0288 10.5131C40.0288 10.4726 39.9881 10.432 39.907 10.3917L39.684 10.2905C39.5623 10.2298 39.5419 10.1489 39.5419 10.0477C39.5419 9.88594 39.6637 9.74416 39.8867 9.74416C40.1302 9.74416 40.2111 9.86565 40.2724 10.0678H40.0697C40.0494 9.96658 39.9884 9.94655 39.8666 9.94655C39.7651 9.94655 39.725 9.96684 39.725 10.0275C39.725 10.0881 39.7453 10.1086 39.8264 10.1489L40.0494 10.2702C40.0915 10.2903 40.1272 10.3218 40.1522 10.3611C40.1772 10.4004 40.1907 10.446 40.191 10.4926C40.191 10.6547 40.0697 10.7759 39.8468 10.7759C39.6032 10.7759 39.4814 10.6344 39.4611 10.4523ZM29.8299 10.7564L29.9923 9.78553H30.3574C30.5397 9.78553 30.6615 9.88672 30.6615 10.0485C30.6615 10.3115 30.4787 10.3721 30.2758 10.3721H30.0732L30.0127 10.7564H29.8299ZM30.1426 9.96476L30.1053 10.1872H30.3157C30.4172 10.1872 30.4782 10.1466 30.4782 10.0657C30.4782 9.98479 30.4172 9.9645 30.2954 9.9645L30.1426 9.96476ZM41.3299 10.7564L41.497 9.76524H41.8974C42.0598 9.76524 42.1613 9.88646 42.1613 10.0282C42.1613 10.1497 42.1008 10.2304 41.9993 10.2912C42.0598 10.3316 42.0804 10.3316 42.0804 10.3924V10.6554C42.0804 10.716 42.0804 10.716 42.1008 10.7566H41.9993C41.918 10.7566 41.8974 10.7363 41.8974 10.6354V10.4533C41.8974 10.3927 41.8572 10.3521 41.7964 10.3521H41.5982L41.5325 10.7566H41.3299V10.7564ZM41.66 9.98896L41.6248 10.2114H41.8353C41.9164 10.2114 41.9769 10.1508 41.9769 10.0901C41.9769 10.0295 41.9164 9.98896 41.8353 9.98896H41.66ZM42.3399 9.76524H42.5222L42.6237 10.4731L42.9684 9.76524H43.1507L42.6842 10.7564H42.4815L42.3399 9.76524ZM35.5482 9.94733L35.5889 9.76524H36.2781L36.2578 9.94733H35.9944L35.8726 10.7564H35.67L35.8116 9.94733H35.5482ZM28.6735 9.96762L28.6939 9.78579H29.4035L29.3837 9.96762H29.1197L28.9781 10.7566H28.7953L28.9374 9.96762H28.6735ZM27.8442 10.7564L28.0062 9.78553H28.189L28.0469 10.5743H28.5337L28.4931 10.7564H27.8442ZM30.7033 10.7564L30.8652 9.78553H31.048L30.9265 10.5745H31.393L31.3524 10.7566H30.7033V10.7564ZM33.3769 10.7564L33.5393 9.76524H33.7216L33.58 10.5743H34.0664L34.0257 10.7564H33.3769ZM36.3188 10.7564L36.4813 9.76524H36.6636L36.5016 10.7564H36.3188ZM34.1869 10.7564L34.3493 9.76524H34.5316L34.3697 10.7564H34.1869ZM29.4249 10.7564L29.5873 9.78553H29.7696L29.6077 10.7564H29.4249ZM43.1937 10.7564L43.3557 9.76524H43.5385L43.376 10.7564H43.1937ZM44.6403 10.7564L44.8226 9.76524H45.4965L45.4655 9.94733H44.9695L44.9358 10.1495H45.3992L45.3692 10.3313H44.9037L44.8636 10.5743H45.3601L45.3296 10.7564H44.6403ZM5.82033 0.361183V17.6966H20.5426V0.361183H5.82033ZM7.74756 2.38299H18.4545V13.3263H7.74756V2.38299ZM17.4802 12.0074L13.4854 8.0223V12.0071L17.4802 12.0074ZM14.1139 3.73728C13.891 3.73728 13.7082 3.73728 13.4852 3.75757V7.78297C15.3102 7.78297 16.4863 7.31784 16.4863 5.67948C16.4863 4.32389 15.4927 3.73728 14.1139 3.73728ZM9.28934 3.75419V12.0071H12.2501V3.75419H9.28934ZM19.4304 12.8573C19.9574 12.8573 20.4036 13.3021 20.4036 13.8484C20.4036 14.415 19.9778 14.8398 19.4304 14.8398C18.9033 14.8398 18.4571 14.3947 18.4571 13.8281C18.4571 13.2823 18.8827 12.8573 19.4304 12.8573ZM20.1981 13.8515C20.1981 13.4267 19.8534 13.0625 19.4275 13.0625C19.3263 13.0625 19.2261 13.0823 19.1326 13.121C19.0391 13.1596 18.9541 13.2162 18.8825 13.2876C18.811 13.359 18.7542 13.4437 18.7155 13.537C18.6768 13.6303 18.6569 13.7303 18.6569 13.8312C18.6569 14.2763 19.0217 14.64 19.4275 14.64C19.8536 14.64 20.1981 14.2966 20.1981 13.8515ZM19.101 14.3138V13.3229H19.385C19.6484 13.3229 19.8177 13.3833 19.8177 13.6059C19.8177 13.768 19.7499 13.8081 19.6484 13.8692L19.831 14.3138H19.6275L19.4661 13.9296H19.2836V14.3138H19.101ZM19.2864 13.5071V13.7495H19.4283C19.5501 13.7495 19.5905 13.7095 19.5905 13.6286C19.5905 13.5269 19.5297 13.5071 19.4082 13.5071H19.2864ZM16.043 14.1522C16.4689 14.1522 16.854 14.5159 16.854 15.0018C16.854 15.4878 16.4686 15.8718 16.043 15.8718C15.6174 15.8718 15.2319 15.4875 15.2319 15.0018C15.2319 14.5162 15.6171 14.1522 16.043 14.1522ZM16.6488 15.0044C16.6488 14.6202 16.3651 14.3572 16.0404 14.3572C15.7157 14.3572 15.432 14.6205 15.432 15.0044C15.432 15.3892 15.716 15.672 16.0404 15.672C16.3648 15.672 16.6488 15.3889 16.6488 15.0044ZM11.1516 15.8325H10.9287L11.5572 14.1939H11.7801L12.3682 15.8325H12.1452L11.983 15.327H11.3342L11.1516 15.8325ZM11.9032 15.1223L11.6599 14.4342L11.4166 15.1223H11.9032ZM17.1787 15.8325V14.1939H17.8278C18.2334 14.1939 18.4767 14.2547 18.4767 14.5989C18.4767 14.7604 18.4157 14.8616 18.2537 14.9831C18.5374 15.1655 18.3755 15.6101 18.5174 15.8327C17.9697 15.8327 18.5174 15.1046 17.7063 15.1046H17.402V15.8327L17.1787 15.8325ZM17.3983 14.3973V14.9033H17.7838C18.0067 14.9033 18.2501 14.9033 18.2501 14.64C18.2501 14.397 18.0878 14.397 17.7634 14.397L17.3983 14.3973ZM7.83049 15.8325V14.1939H8.47933C8.88486 14.1939 9.14852 14.2547 9.14852 14.5989C9.14852 14.7604 9.06741 14.8616 8.9052 14.9831C9.18894 15.1655 9.04707 15.6101 9.18894 15.8327C8.64154 15.8327 9.18894 15.1046 8.37789 15.1046H8.05346V15.8327L7.83049 15.8325ZM8.05007 14.3973V14.9033H8.43552C8.65876 14.9033 8.90207 14.9033 8.90207 14.64C8.90207 14.397 8.73986 14.397 8.41544 14.397L8.05007 14.3973ZM13.7293 14.1939H15.0476V14.3965H14.4796V15.8325H14.2769V14.3965H13.7293V14.1939ZM9.47007 15.8325V14.1939H10.6462V14.3965H9.6727V14.902H10.5649V15.1041H9.6727V15.6298H10.6462V15.832H9.47007V15.8325ZM12.6754 15.8325V14.1939H12.8783V15.6301H13.7298V15.8322L12.6754 15.8325Z" fill="#FFFFFF"/>
</svg>
